<svg xmlns="http://www.w3.org/2000/svg" version="1.1" xmlns:xlink="http://www.w3.org/1999/xlink" xmlns:svgjs="http://svgjs.dev/svgjs" width="1000" height="1000" viewBox="0 0 1000 1000"><rect width="1000" height="1000" fill="#ffffff"></rect><g transform="matrix(0.7,0,0,0.7,149.57575757575756,282.1265587044535)"><svg viewBox="0 0 396 247" data-background-color="#ffffff" preserveAspectRatio="xMidYMid meet" height="623" width="1000" xmlns="http://www.w3.org/2000/svg" xmlns:xlink="http://www.w3.org/1999/xlink"><g id="tight-bounds" transform="matrix(1,0,0,1,0.2400000000000091,-0.09999999999999432)"><svg viewBox="0 0 395.52 247.2" height="247.2" width="395.52"><g><svg></svg></g><g><svg viewBox="0 0 395.52 247.2" height="247.2" width="395.52"><g transform="matrix(1,0,0,1,75.54432,109.78843478460655)"><svg viewBox="0 0 244.43135999999998 27.623130430786897" height="27.623130430786897" width="244.43135999999998"><g><svg viewBox="0 0 244.43135999999998 27.623130430786897" height="27.623130430786897" width="244.43135999999998"><g><svg viewBox="0 0 244.43135999999998 27.623130430786897" height="27.623130430786897" width="244.43135999999998"><g><svg viewBox="0 0 244.43135999999998 27.623130430786897" height="27.623130430786897" width="244.43135999999998"><g id="textblocktransform"><svg viewBox="0 0 244.43135999999998 27.623130430786897" height="27.623130430786897" width="244.43135999999998" id="textblock"><g><svg viewBox="0 0 244.43135999999998 27.623130430786897" height="27.623130430786897" width="244.43135999999998"><g transform="matrix(1,0,0,1,0,0)"><svg width="244.43135999999998" viewBox="1.9500000476837158 -38.849998474121094 348.15997314453125 39.349998474121094" height="27.623130430786897" data-palette-color="#ff0033"><path d="M29.05-7.55L31.35-2.6Q30.75-2.15 29.68-1.63 28.6-1.1 27.15-0.65 25.7-0.2 23.93 0.1 22.15 0.4 20.15 0.4L20.15 0.4Q15.9 0.4 12.53-1.07 9.15-2.55 6.8-5.05 4.45-7.55 3.2-10.85 1.95-14.15 1.95-17.85L1.95-17.85Q1.95-21.95 3.43-25.4 4.9-28.85 7.45-31.35 10-33.85 13.43-35.25 16.85-36.65 20.7-36.65L20.7-36.65Q22.15-36.65 23.65-36.45 25.15-36.25 26.48-35.9 27.8-35.55 28.83-35.08 29.85-34.6 30.4-34.1L30.4-34.1Q30-33.5 29.78-33.1 29.55-32.7 29.3-32.27 29.05-31.85 28.75-31.3 28.45-30.75 27.95-29.85L27.95-29.85Q27.3-30.3 26.43-30.6 25.55-30.9 24.6-31.1 23.65-31.3 22.68-31.4 21.7-31.5 20.9-31.5L20.9-31.5Q18-31.5 15.53-30.43 13.05-29.35 11.25-27.53 9.45-25.7 8.43-23.3 7.4-20.9 7.4-18.3L7.4-18.3Q7.4-15.75 8.38-13.4 9.35-11.05 11.08-9.2 12.8-7.35 15.23-6.25 17.65-5.15 20.55-5.15L20.55-5.15Q22.1-5.15 23.55-5.45 25-5.75 26.18-6.15 27.35-6.55 28.13-6.95 28.9-7.35 29.05-7.55L29.05-7.55ZM34.9 0L34.9-38.85 39.15-38.85 39.15-15.85Q40.25-18.35 42.25-19.88 44.25-21.4 47.4-21.45L47.4-21.45Q50.6-21.5 52.52-19.75 54.45-18 54.55-15.2L54.55-15.2 54.55 0 50.25 0 50.25-13.25Q50.15-14.85 49.15-15.98 48.15-17.1 46-17.2L46-17.2Q44.5-17.2 43.25-16.68 42-16.15 41.1-15.25 40.2-14.35 39.67-13.1 39.15-11.85 39.15-10.35L39.15-10.35 39.15 0 34.9 0ZM72.8-21.45L71.84-15.95Q70.45-15.95 69.15-15.58 67.84-15.2 66.82-14.45 65.8-13.7 65.2-12.58 64.59-11.45 64.59-10L64.59-10 64.59 0 60.35 0 60.35-20.9 64.09-20.9Q64.2-19.35 64.27-18.07 64.34-16.8 64.45-15.55L64.45-15.55Q65.09-16.9 66.15-18 67.2-19.1 68.4-19.85 69.59-20.6 70.75-21.03 71.9-21.45 72.8-21.45L72.8-21.45ZM75.34-28.9L75.34-28.9Q75.34-30.1 76.22-30.9 77.09-31.7 78.09-31.7L78.09-31.7Q79.09-31.7 79.94-30.9 80.79-30.1 80.79-28.9L80.79-28.9Q80.79-27.7 79.94-26.93 79.09-26.15 78.09-26.15L78.09-26.15Q77.09-26.15 76.22-26.93 75.34-27.7 75.34-28.9ZM80.14-20.9L80.14 0 75.89 0 75.89-20.9 80.14-20.9ZM97.79-19.05L97.79-19.05 95.54-16.05Q95.49-16.1 95.19-16.3 94.89-16.5 94.42-16.7 93.94-16.9 93.32-17.07 92.69-17.25 92.04-17.25L92.04-17.25Q91.19-17.25 90.37-16.85 89.54-16.45 89.54-15.35L89.54-15.35Q89.54-14.4 90.22-13.8 90.89-13.2 91.89-12.73 92.89-12.25 94.07-11.75 95.24-11.25 96.24-10.53 97.24-9.8 97.92-8.72 98.59-7.65 98.59-6L98.59-6Q98.59-3.2 96.67-1.38 94.74 0.45 91.39 0.45L91.39 0.45Q89.44 0.45 87.57-0.23 85.69-0.9 84.54-2.2L84.54-2.2Q84.89-2.55 85.32-3.1 85.74-3.65 86.17-4.15 86.59-4.65 86.87-4.98 87.14-5.3 87.19-5.3L87.19-5.3Q87.19-5.25 87.57-5 87.94-4.75 88.54-4.48 89.14-4.2 89.89-3.98 90.64-3.75 91.39-3.75L91.39-3.75Q92.59-3.75 93.44-4.35 94.29-4.95 94.29-5.95L94.29-5.95Q94.29-6.85 93.62-7.38 92.94-7.9 91.94-8.35 90.94-8.8 89.74-9.28 88.54-9.75 87.54-10.5 86.54-11.25 85.87-12.38 85.19-13.5 85.19-15.3L85.19-15.3Q85.19-17 85.82-18.15 86.44-19.3 87.42-20.03 88.39-20.75 89.59-21.08 90.79-21.4 91.89-21.4L91.89-21.4Q93.34-21.4 94.99-20.8 96.64-20.2 97.79-19.05ZM104.94-20.85L104.94-30.1 109.19-30.1 109.19-20.85 114.79-20.85 114.79-17.05 109.19-17.05 109.19 0 104.94 0 104.94-17.05 101.19-17.05 101.19-20.85 104.94-20.85ZM117.79-28.9L117.79-28.9Q117.79-30.1 118.66-30.9 119.54-31.7 120.54-31.7L120.54-31.7Q121.54-31.7 122.39-30.9 123.24-30.1 123.24-28.9L123.24-28.9Q123.24-27.7 122.39-26.93 121.54-26.15 120.54-26.15L120.54-26.15Q119.54-26.15 118.66-26.93 117.79-27.7 117.79-28.9ZM122.59-20.9L122.59 0 118.34 0 118.34-20.9 122.59-20.9ZM127.13-10.25L127.13-10.25Q127.13-12.55 128.01-14.58 128.88-16.6 130.38-18.13 131.88-19.65 133.86-20.55 135.83-21.45 138.08-21.45L138.08-21.45Q139.58-21.45 140.83-21.08 142.08-20.7 142.98-20.15 143.88-19.6 144.43-19 144.98-18.4 145.18-17.95L145.18-17.95 145.38-20.9 149.48-20.9 149.48 0 145.18 0 145.18-2.65Q144.93-2.25 144.38-1.7 143.83-1.15 142.96-0.68 142.08-0.2 140.88 0.15 139.68 0.5 138.13 0.5L138.13 0.5Q135.73 0.5 133.71-0.38 131.68-1.25 130.23-2.73 128.78-4.2 127.96-6.15 127.13-8.1 127.13-10.25ZM131.43-10.5L131.43-10.5Q131.43-9.05 131.96-7.8 132.48-6.55 133.38-5.65 134.28-4.75 135.53-4.23 136.78-3.7 138.28-3.7L138.28-3.7Q139.78-3.7 141.06-4.23 142.33-4.75 143.26-5.68 144.18-6.6 144.68-7.83 145.18-9.05 145.18-10.5L145.18-10.5Q145.18-11.95 144.68-13.18 144.18-14.4 143.26-15.3 142.33-16.2 141.06-16.73 139.78-17.25 138.28-17.25L138.28-17.25Q136.78-17.25 135.53-16.73 134.28-16.2 133.38-15.3 132.48-14.4 131.96-13.18 131.43-11.95 131.43-10.5ZM155.48 0L155.48-20.9 159.23-20.9Q159.33-19.35 159.41-18.07 159.48-16.8 159.58-15.55L159.58-15.55Q160.73-18.25 162.86-19.85 164.98-21.45 168.08-21.45L168.08-21.45Q171.23-21.45 173.13-19.7 175.03-17.95 175.13-15.2L175.13-15.2 175.13 0 170.83 0 170.83-13.25Q170.73-14.85 169.73-15.98 168.73-17.1 166.58-17.2L166.58-17.2Q165.08-17.2 163.83-16.68 162.58-16.15 161.68-15.25 160.78-14.35 160.26-13.1 159.73-11.85 159.73-10.35L159.73-10.35 159.73 0 155.48 0ZM217.13 0L210.38 0Q208.63-2.25 207.03-4.3 205.43-6.35 203.88-8.4 202.33-10.45 200.75-12.55 199.18-14.65 197.43-16.9L197.43-16.9Q196.78-16.2 196.18-15.63 195.58-15.05 194.88-14.45L194.88-14.45Q194.88-10.6 194.9-7.23 194.93-3.85 194.93 0L194.93 0 188.88 0 188.88-36.25 194.93-36.25 194.93-22.7Q194.93-22.25 194.85-21.83 194.78-21.4 194.78-20.95L194.78-20.95Q195.03-21.3 195.28-21.58 195.53-21.85 195.78-22.25L195.78-22.25Q199.33-25.6 202.63-29.23 205.93-32.85 209.48-36.25L209.48-36.25 216.43-36.25Q212.68-32.35 209-28.4 205.33-24.45 201.58-20.55L201.58-20.55Q203.68-17.85 205.6-15.33 207.53-12.8 209.4-10.3 211.28-7.8 213.18-5.25 215.08-2.7 217.13 0L217.13 0ZM216.92-10.5L216.92-10.5Q216.92-12.75 217.8-14.75 218.67-16.75 220.17-18.23 221.67-19.7 223.7-20.58 225.72-21.45 228.07-21.45L228.07-21.45Q230.42-21.45 232.45-20.58 234.47-19.7 235.95-18.23 237.42-16.75 238.25-14.75 239.07-12.75 239.07-10.5L239.07-10.5Q239.07-8.25 238.25-6.25 237.42-4.25 235.95-2.75 234.47-1.25 232.45-0.38 230.42 0.5 228.02 0.5L228.02 0.5Q225.72 0.5 223.7-0.3 221.67-1.1 220.17-2.55 218.67-4 217.8-6.03 216.92-8.05 216.92-10.5ZM221.17-10.45L221.17-10.45Q221.17-9.05 221.7-7.83 222.22-6.6 223.15-5.68 224.07-4.75 225.3-4.23 226.52-3.7 227.92-3.7L227.92-3.7Q229.32-3.7 230.57-4.23 231.82-4.75 232.75-5.68 233.67-6.6 234.22-7.83 234.77-9.05 234.77-10.45L234.77-10.45Q234.77-11.85 234.22-13.1 233.67-14.35 232.75-15.28 231.82-16.2 230.57-16.73 229.32-17.25 227.92-17.25L227.92-17.25Q226.52-17.25 225.3-16.73 224.07-16.2 223.15-15.28 222.22-14.35 221.7-13.1 221.17-11.85 221.17-10.45ZM243.62 0L243.62-20.9 247.37-20.9Q247.47-19.35 247.55-18.07 247.62-16.8 247.72-15.55L247.72-15.55Q248.87-18.25 251-19.85 253.12-21.45 256.22-21.45L256.22-21.45Q259.37-21.45 261.27-19.7 263.17-17.95 263.27-15.2L263.27-15.2 263.27 0 258.97 0 258.97-13.25Q258.87-14.85 257.87-15.98 256.87-17.1 254.72-17.2L254.72-17.2Q253.22-17.2 251.97-16.68 250.72-16.15 249.82-15.25 248.92-14.35 248.4-13.1 247.87-11.85 247.87-10.35L247.87-10.35 247.87 0 243.62 0ZM269.07 0L269.07-20.9 272.82-20.9Q272.92-19.35 272.99-18.07 273.07-16.8 273.17-15.55L273.17-15.55Q274.32-18.25 276.44-19.85 278.57-21.45 281.67-21.45L281.67-21.45Q284.82-21.45 286.72-19.7 288.62-17.95 288.72-15.2L288.72-15.2 288.72 0 284.42 0 284.42-13.25Q284.32-14.85 283.32-15.98 282.32-17.1 280.17-17.2L280.17-17.2Q278.67-17.2 277.42-16.68 276.17-16.15 275.27-15.25 274.37-14.35 273.84-13.1 273.32-11.85 273.32-10.35L273.32-10.35 273.32 0 269.07 0ZM309.01-5.55L312.21-2.45Q310.71-1.1 308.56-0.3 306.41 0.5 304.16 0.5L304.16 0.5Q301.87 0.5 299.84-0.38 297.81-1.25 296.31-2.73 294.81-4.2 293.94-6.2 293.06-8.2 293.06-10.45L293.06-10.45Q293.06-12.7 293.94-14.7 294.81-16.7 296.31-18.2 297.81-19.7 299.79-20.58 301.76-21.45 304.01-21.45L304.01-21.45Q307.56-21.45 310.19-19.33 312.81-17.2 313.96-13.75L313.96-13.75Q312.41-13.2 310.41-12.4 308.41-11.6 306.26-10.73 304.12-9.85 301.96-9 299.81-8.15 297.96-7.45L297.96-7.45Q298.81-5.75 300.44-4.73 302.06-3.7 304.06-3.7L304.06-3.7Q305.41-3.7 306.79-4.2 308.16-4.7 309.01-5.55L309.01-5.55ZM308.62-14.75L308.62-14.75Q308.01-16 306.71-16.63 305.41-17.25 304.06-17.25L304.06-17.25Q302.62-17.25 301.39-16.7 300.16-16.15 299.26-15.23 298.37-14.3 297.84-13.1 297.31-11.9 297.31-10.65L297.31-10.65Q297.31-10.4 297.34-10.3 297.37-10.2 297.37-10.15L297.37-10.15Q298.66-10.65 300.19-11.28 301.71-11.9 303.21-12.53 304.71-13.15 306.12-13.73 307.51-14.3 308.62-14.75ZM331.66-5.15L331.66-5.15Q332.36-4.3 332.99-3.53 333.61-2.75 334.26-1.9L334.26-1.9Q332.86-0.8 331.11-0.15 329.36 0.5 327.31 0.5L327.31 0.5Q325.01 0.5 322.99-0.38 320.96-1.25 319.46-2.75 317.96-4.25 317.09-6.25 316.21-8.25 316.21-10.5L316.21-10.5Q316.21-12.75 317.09-14.75 317.96-16.75 319.46-18.23 320.96-19.7 322.99-20.58 325.01-21.45 327.31-21.45L327.31-21.45Q329.41-21.45 331.19-20.8 332.96-20.15 334.41-19.05L334.41-19.05 331.66-15.8Q330.81-16.5 329.71-16.88 328.61-17.25 327.31-17.25L327.31-17.25Q325.81-17.25 324.56-16.73 323.31-16.2 322.39-15.3 321.46-14.4 320.96-13.18 320.46-11.95 320.46-10.5L320.46-10.5Q320.46-9.05 320.96-7.83 321.46-6.6 322.39-5.68 323.31-4.75 324.56-4.23 325.81-3.7 327.31-3.7L327.31-3.7Q328.61-3.7 329.71-4.08 330.81-4.45 331.66-5.15ZM340.26-20.85L340.26-30.1 344.51-30.1 344.51-20.85 350.11-20.85 350.11-17.05 344.51-17.05 344.51 0 340.26 0 340.26-17.05 336.51-17.05 336.51-20.85 340.26-20.85Z" opacity="1" transform="matrix(1,0,0,1,0,0)" fill="#ff0033" class="wordmark-text-0" data-fill-palette-color="primary" id="text-0"></path></svg></g></svg></g></svg></g></svg></g></svg></g></svg></g></svg></g><path d="M173.862 103.788L173.862 39.226 5.114 39.226 5.114 207.974 173.862 207.974 173.862 143.412 171.371 143.412 171.371 205.483 7.605 205.483 7.605 41.717 171.371 41.717 171.371 103.788Z" fill="#ff0033" stroke="transparent" data-fill-palette-color="primary"></path></svg></g><defs></defs></svg><rect width="395.52" height="247.2" fill="none" stroke="none" visibility="hidden"></rect></g></svg></g></svg>